<svg xmlns="http://www.w3.org/2000/svg" width="20" height="20" fill="none"><g clip-path="url(#a)" filter="url(#b)"><path fill="#000" d="m19.5 18-3.7-3.67c1-1.3 1.7-2.98 1.7-4.87a8 8 0 0 0-8-7.96c-4.4 0-8 3.68-8 8.06a8 8 0 0 0 12.9 6.26l3.7 3.68 1.4-1.5Zm-10-2.48a6 6 0 0 1-6-5.96 6 6 0 0 1 12 0 6 6 0 0 1-6 5.96Z"/><path stroke="#000" d="m15.4 14.02-.27.35.32.31 3.35 3.34-.71.76-3.34-3.31-.31-.32-.35.28A7.5 7.5 0 0 1 2 9.56C2.01 5.45 5.4 2 9.51 2A7.5 7.5 0 0 1 17 9.46c0 1.76-.65 3.35-1.6 4.56ZM3 9.56a6.5 6.5 0 0 0 13 0 6.5 6.5 0 0 0-13 0Z"/></g><defs><clipPath id="a"><path fill="#fff" d="M0 0h20v20H0z"/></clipPath><filter id="b" width="26" height="26" x="-2.5" y="1.5" color-interpolation-filters="sRGB" filterUnits="userSpaceOnUse"><feFlood flood-opacity="0" result="BackgroundImageFix"/><feColorMatrix in="SourceAlpha" result="hardAlpha" values="0 0 0 0 0 0 0 0 0 0 0 0 0 0 0 0 0 0 127 0"/><feOffset dy="4"/><feGaussianBlur stdDeviation="2"/><feComposite in2="hardAlpha" operator="out"/><feColorMatrix values="0 0 0 0 0 0 0 0 0 0 0 0 0 0 0 0 0 0 0.25 0"/><feBlend in2="BackgroundImageFix" result="effect1_dropShadow_74441_533"/><feBlend in="SourceGraphic" in2="effect1_dropShadow_74441_533" result="shape"/></filter></defs></svg>